<svg width="199" height="250" viewBox="0 0 199 250" fill="none" xmlns="http://www.w3.org/2000/svg">
<path d="M131.955 166.356C125.301 174.021 121.597 187.978 126.45 192.48C131.109 195.96 143.532 195.51 152.733 182.948C155.404 179.174 157.011 174.478 157.011 169.41C157.011 164.736 155.652 160.389 153.307 156.723L153.362 156.816C147.694 152.515 139.556 158.087 131.955 166.449V166.356ZM69.396 168.681C62.3458 160.621 53.1837 155.832 47.2593 159.381C43.2994 162.342 42.5618 172.44 48.2144 182.375C56.5845 194.185 68.4022 195.386 73.224 192.504C78.3408 188.722 75.5533 175.942 69.396 168.673V168.681ZM101.27 193.054C92.7285 192.852 79.5288 196.456 79.7151 201.051C79.5754 204.151 90.0497 213.234 100.679 212.777C110.975 213.009 121.644 203.95 121.504 199.998C121.364 196.045 109.857 192.814 101.262 193.147L101.27 193.054ZM100.687 84.9923C90.7874 84.7443 81.2758 92.2227 81.2758 96.5626C81.2758 101.832 89.1025 107.226 100.765 107.366C112.746 107.443 120.316 103.034 120.425 97.601C120.549 91.4478 109.601 84.8993 100.874 84.9923H100.687ZM76.8422 89.1151C60.2649 86.4415 46.4596 96.0898 47.0109 113.852C47.5544 120.703 82.9607 90.2853 76.85 89.2314L76.8422 89.1151ZM152.539 114.309C153.09 96.6633 139.269 87.0227 122.692 89.6963C116.581 90.7426 151.98 121.168 152.539 114.309ZM155.365 120.695C145.745 118.145 152.104 159.823 159.931 156.46C164.209 152.391 166.872 146.656 166.872 140.309C166.872 131.963 162.276 124.694 155.474 120.873L155.365 120.819V120.695ZM39.6734 156.925C47.4923 160.412 53.8592 118.727 44.2467 121.276C37.3285 125.182 32.7319 132.475 32.7319 140.844C32.7319 147.207 35.3951 152.957 39.6656 157.033L39.6734 157.041V156.925ZM112.777 110.83C107.885 114.627 104.764 120.509 104.764 127.112C104.764 131.948 106.433 136.388 109.228 139.899L109.197 139.86C113.017 146.354 119.974 150.648 127.941 150.648C131.567 150.648 134.991 149.756 137.996 148.183L137.879 148.237C142.779 144.44 145.908 138.566 145.908 131.955C145.908 127.12 144.239 122.679 141.436 119.168L141.467 119.207C137.709 112.736 130.798 108.451 122.886 108.451C119.19 108.451 115.719 109.388 112.683 111.031L112.8 110.977L112.777 110.83ZM88.7065 111.876C85.8103 110.334 82.3706 109.435 78.7213 109.435C70.8014 109.435 63.8832 113.682 60.1252 120.021L60.0708 120.122C57.2989 123.609 55.6295 128.073 55.6295 132.924C55.6295 139.55 58.7509 145.448 63.6037 149.237L63.6503 149.268C66.5698 150.857 70.0405 151.787 73.7287 151.787C81.6407 151.787 88.5512 147.501 92.2549 141.123L92.3092 141.022C95.0423 137.551 96.6884 133.126 96.6884 128.313C96.6884 121.703 93.5826 115.821 88.7375 112.039L88.6909 112.008L88.7065 111.876ZM122.63 167.379C122.032 156.537 113.079 147.974 102.124 147.974C101.743 147.974 101.363 147.982 100.982 148.005H101.037C100.819 147.997 100.555 147.989 100.299 147.989C89.25 147.989 80.2276 156.661 79.6996 167.565V167.612V167.836C80.3052 178.678 89.2655 187.242 100.221 187.242C100.602 187.242 100.982 187.234 101.363 187.211H101.308C101.58 187.226 101.898 187.234 102.217 187.234C113.188 187.234 122.141 178.585 122.599 167.751V167.712V167.488L122.676 167.371L122.63 167.379ZM147.593 50.1032C134.471 56.0782 123.212 63.7117 113.46 72.926L113.514 72.8718C116.441 84.4963 131.714 84.9458 137.297 84.5893C136.218 84.2483 135.348 83.4966 134.859 82.5279L134.851 82.5046C136.249 81.5747 141.226 82.3806 144.697 80.5285C143.369 80.296 142.74 80.0557 142.142 78.9785C145.496 78.2423 148.455 77.0024 151.118 75.3207L151.001 75.3904C150.745 75.4292 150.458 75.4602 150.155 75.4602C149.13 75.4602 148.167 75.1734 147.352 74.6852L147.375 74.7007C150.629 73.3135 153.424 71.6008 155.94 69.5549L155.878 69.6014C154.325 69.6014 152.725 69.6014 152.259 69.0202C154.868 67.4935 157.112 65.6956 159.053 63.6109L159.069 63.5954C156.957 63.9442 156.041 63.7194 155.544 63.3629C157.834 61.6115 159.768 59.5346 161.305 57.1787L161.359 57.0857C160.769 57.3957 160.07 57.5739 159.333 57.5739C158.595 57.5739 157.896 57.3957 157.283 57.078L157.306 57.0935C158.013 55.59 160.956 54.6601 162.664 51.0565C162.097 51.2037 161.445 51.2967 160.777 51.2967C160.109 51.2967 159.457 51.2114 158.836 51.0487L158.89 51.0642C159.612 48.5223 160.769 46.3137 162.299 44.4072L162.268 44.446C161.53 44.477 160.668 44.4925 159.799 44.4925C157.617 44.4925 155.466 44.3917 153.339 44.198L153.61 44.2212L155.808 42.0126C154.845 41.8266 153.742 41.7181 152.609 41.7181C150.303 41.7181 148.105 42.1676 146.094 42.989L146.211 42.9503C145.054 42.1366 146.211 40.9741 147.647 39.8504C144.658 40.2379 141.948 40.9199 139.378 41.8808L139.634 41.7956C138.361 40.6331 140.411 39.5869 141.498 38.4167C138.291 38.967 135.434 40.1062 132.91 41.7258L133.003 41.6716C131.606 40.3929 132.887 39.2382 133.78 38.192C131.031 39.2537 128.678 40.7494 126.667 42.6093L126.683 42.5938C125.984 41.8188 125.06 41.2066 126.217 39.1142C123.958 40.3697 122.063 42.0048 120.549 43.95L120.518 43.9887C119.011 42.9503 119.594 41.6638 119.594 40.5091C117.381 42.4698 115.362 44.5235 113.499 46.7089L113.429 46.7941C112.955 46.5539 112.652 45.6317 112.381 44.1127C106.332 49.925 97.7133 64.4401 110.168 70.1207C120.727 61.8595 133.065 55.249 146.444 50.979L147.274 50.7465L147.593 50.1652V50.1032ZM52.4072 50.1032C66.6241 54.6213 78.962 61.2705 89.7392 69.8029L89.4985 69.6169C101.922 63.8047 93.3264 49.2895 87.3089 43.609C86.9905 45.1125 86.6489 46.1587 86.2606 46.3911C84.3273 44.1282 82.324 42.0746 80.2043 40.1682L80.1422 40.1139C80.1422 41.2764 80.74 42.6713 79.2337 43.6013C77.7352 41.6018 75.8639 39.9667 73.7209 38.7655L73.6355 38.719C74.7924 40.7029 73.8296 41.2764 73.2007 42.1986C71.2828 40.1992 68.9535 38.6182 66.3446 37.5953L66.2126 37.5488C67.1443 38.7035 68.5419 39.8737 67.1443 41.1524C64.7451 39.5792 61.9188 38.44 58.8828 37.9208L58.7509 37.9053C59.7991 39.06 61.8567 40.2302 60.5988 41.3926C58.2617 40.4626 55.5519 39.7574 52.7256 39.4087L52.5625 39.3932C53.9679 40.5556 55.218 41.6328 54.0533 42.4931C52.1044 41.6406 49.8372 41.1524 47.4612 41.1524C46.3509 41.1524 45.2561 41.2609 44.2079 41.4624L44.3166 41.4469L46.5217 43.6478C44.6427 43.8493 42.4608 43.9655 40.2557 43.9655C39.4016 43.9655 38.5475 43.95 37.6934 43.9113L37.8176 43.919C39.3628 45.7634 40.5352 47.9876 41.1719 50.421L41.1952 50.5372C40.8458 50.886 39.0988 50.6612 37.4449 50.5372C39.192 54.0168 42.1037 54.9545 42.7869 56.4657C42.1968 56.7835 41.498 56.9695 40.7604 56.9695C40.0228 56.9695 39.3162 56.7835 38.7106 56.458L38.7339 56.4657C40.4343 58.8449 42.3444 60.9063 44.4874 62.7042L44.5417 62.743C43.8973 63.0452 43.1364 63.2157 42.3444 63.2157C41.8474 63.2157 41.3583 63.146 40.9002 63.022L40.939 63.0297C42.8879 65.1144 45.1085 66.9045 47.5466 68.377L47.6864 68.4545C47.2205 68.997 45.5822 68.9892 43.9672 69.0357C46.413 71.0506 49.216 72.7788 52.2364 74.0885L52.4616 74.1737C51.6696 74.724 50.6913 75.0495 49.6275 75.0495C49.3558 75.0495 49.084 75.0262 48.82 74.9875H48.8511C51.3901 76.6149 54.3484 77.8626 57.5163 78.5523L57.6949 78.5833C57.1436 79.4978 56.1575 80.11 55.0239 80.1332C58.5102 82.1017 63.3941 81.1794 64.7917 82.2257C64.2947 83.2176 63.4329 83.9693 62.3847 84.3103L62.3536 84.3181C67.9363 84.6668 83.3179 84.2018 86.2063 72.5851C76.5161 63.4637 65.2498 55.869 52.8809 50.2892L52.1122 49.9793L52.4228 50.1032H52.4072ZM65.8709 32.7672C67.7577 33.023 69.4659 33.5654 71.0266 34.3559L70.9334 34.3172C75.0409 32.9997 75.9804 34.8054 77.9992 35.5494C82.4793 34.6194 83.8381 36.6421 85.9889 38.7965L88.4891 38.7267C93.9786 42.5163 98.0006 48.0728 99.7554 54.5671L99.802 54.7608C101.596 48.0806 105.618 42.5241 111.022 38.8197L111.115 38.7577L113.607 38.812C115.758 36.6421 117.117 34.6349 121.597 35.5726C123.624 34.7976 124.548 33.0152 128.671 34.2862C131.233 33.5112 133.485 31.38 136.878 33.9374C137.895 33.3484 139.122 32.9997 140.426 32.9997C142.165 32.9997 143.757 33.6197 144.999 34.6504L144.992 34.6426C148.874 34.1777 150.062 35.1154 151.001 36.2701C151.84 36.2701 157.283 35.4951 159.791 39.06C166.08 38.3625 168.052 42.6558 165.801 46.7166C166.686 47.6543 167.237 48.9175 167.237 50.3125C167.237 51.8934 166.531 53.3116 165.42 54.2726L165.412 54.2803C166.577 56.365 165.894 58.5659 163.316 61.3558C163.425 61.782 163.495 62.2625 163.495 62.7662C163.495 64.9671 162.26 66.8735 160.443 67.8423L160.412 67.8578C160.878 71.8101 156.685 74.135 155.528 74.941C155.055 77.2659 154.123 79.4668 149.317 80.6292C148.625 84.1088 145.714 84.6823 142.919 85.3875C153.082 90.1846 159.993 100.337 159.993 112.093C159.993 112.868 159.962 113.643 159.9 114.402L159.907 114.302L161.313 116.626C169.007 121.772 174 130.413 174 140.224C174 147.61 171.166 154.336 166.523 159.381L166.538 159.358C165.459 164.279 164.092 168.549 162.384 172.633L162.571 172.13C160.932 183.599 153.276 192.953 142.942 196.998L142.732 197.076C137.32 201.447 131.039 205.019 124.222 207.491L123.771 207.639C117.987 213.955 109.725 217.93 100.532 218H99.802C90.5544 217.946 82.2386 213.978 76.4385 207.677L76.4152 207.654C69.132 205.027 62.8428 201.447 57.2911 196.975L57.4154 197.076C46.8711 192.945 39.1997 183.599 37.5459 172.3L37.5226 172.13C35.9852 168.526 34.6031 164.217 33.6015 159.769L33.5006 159.25C28.8496 154.22 26 147.478 26 140.069C26 130.266 31.0004 121.625 38.5863 116.541L38.6873 116.479L40.0228 114.154C39.9684 113.496 39.9374 112.728 39.9374 111.953C39.9374 100.197 46.84 90.0451 56.833 85.3255L57.0116 85.248C54.2241 84.5506 51.4211 83.9693 50.6214 80.482C45.8462 79.3195 44.9144 77.1186 44.4097 74.7937C43.2451 73.98 39.06 71.6938 39.5258 67.602C37.6701 66.5946 36.4278 64.6571 36.4278 62.433C36.4278 61.9138 36.4977 61.4178 36.6219 60.9373L36.6141 60.976C34.1761 58.2947 33.5083 55.9775 34.5177 53.8851C33.3996 52.9319 32.7008 51.5214 32.7008 49.9483C32.7008 48.5456 33.2599 47.2669 34.1683 46.3369C31.9554 42.2683 33.9354 37.8588 40.2169 38.5872C42.6782 34.9836 48.16 35.8051 48.9598 35.8051C49.8993 34.6426 51.1727 33.5964 55.0083 34.0614C56.2662 33.0307 57.889 32.403 59.6593 32.403C60.9405 32.403 62.144 32.7285 63.1922 33.3019L63.1534 33.2864C63.9919 32.5347 65.0867 32.0542 66.298 32H66.3058L65.8709 32.7672Z" fill="#838383"/>
</svg>
