<svg width="576" height="103" viewBox="0 0 576 103" fill="none" xmlns="http://www.w3.org/2000/svg">
<path d="M459.211 70.6294C459.211 75.4559 457.79 79.2312 454.948 81.9553C452.135 84.6499 447.974 85.9971 442.467 85.9971C437.581 85.9971 433.539 85.0348 430.341 83.1101V72.8502C431.97 73.9753 433.865 74.9081 436.026 75.6483C438.217 76.3886 440.142 76.7587 441.8 76.7587C443.636 76.7587 445.028 76.3146 445.975 75.4263C446.953 74.5083 447.441 73.3091 447.441 71.8286C447.441 70.3185 446.938 69.0008 445.931 67.8756C444.924 66.7504 443.074 65.3736 440.379 63.745C436.796 61.613 434.22 59.3479 432.651 56.9494C431.111 54.5214 430.341 51.664 430.341 48.3772C430.341 44.1726 431.777 40.8414 434.649 38.3837C437.551 35.9261 441.519 34.6973 446.553 34.6973C450.935 34.6973 455.066 35.8521 458.945 38.1617L455.081 46.645C451.912 44.9276 449.129 44.0689 446.731 44.0689C445.22 44.0689 444.08 44.4687 443.31 45.2681C442.57 46.0676 442.2 47.0448 442.2 48.1996C442.2 49.532 442.659 50.7164 443.577 51.7528C444.525 52.7892 446.272 54.0772 448.818 55.617C451.898 57.4824 454.059 59.0666 455.303 60.3694C456.547 61.6723 457.509 63.1528 458.19 64.811C458.871 66.4691 459.211 68.4086 459.211 70.6294Z" fill="#838383"/>
<path d="M409.975 85.9971C403.786 85.9971 398.9 83.806 395.317 79.4236C391.764 75.0117 389.988 68.7787 389.988 60.7247C389.988 52.5523 391.601 46.1713 394.829 41.5817C398.056 36.9921 402.557 34.6973 408.331 34.6973C413.721 34.6973 417.97 36.6664 421.079 40.6045C424.188 44.5131 425.743 50.0058 425.743 57.0827V63.3897H401.98C402.069 67.8016 402.972 71.0883 404.689 73.2499C406.407 75.3818 408.776 76.4478 411.796 76.4478C415.645 76.4478 419.584 75.2486 423.611 72.8502V82.5771C419.82 84.8571 415.275 85.9971 409.975 85.9971ZM408.243 43.8024C406.555 43.8024 405.163 44.7056 404.067 46.5118C402.972 48.2884 402.335 51.057 402.158 54.8175H414.15C414.091 51.205 413.543 48.4661 412.507 46.6006C411.47 44.7352 410.049 43.8024 408.243 43.8024Z" fill="#838383"/>
<path d="M371.132 85.1088V55.617C371.132 48.3624 369.341 44.7352 365.758 44.7352C363.152 44.7352 361.287 46.038 360.161 48.6437C359.036 51.2198 358.474 55.3653 358.474 61.0801V85.1088H346.57V55.617C346.57 48.3624 344.749 44.7352 341.107 44.7352C338.56 44.7352 336.71 46.0232 335.555 48.5993C334.4 51.1754 333.823 55.4245 333.823 61.3466V85.1088H322.008V35.63H331.38L332.801 41.9814H333.556C334.741 39.4645 336.354 37.6287 338.398 36.4739C340.47 35.2895 342.676 34.6973 345.016 34.6973C351.056 34.6973 355.083 37.5547 357.097 43.2695H357.541C360.058 37.5547 364.1 34.6973 369.667 34.6973C374.049 34.6973 377.365 36.237 379.616 39.3165C381.896 42.3959 383.036 46.8967 383.036 52.8188V85.1088H371.132Z" fill="#838383"/>
<path d="M304.706 85.1117L302.352 78.3606H302.086C300.339 81.2624 298.533 83.2611 296.667 84.3567C294.802 85.4522 292.448 86 289.605 86C285.963 86 283.091 84.638 280.988 81.9138C278.915 79.1897 277.879 75.3995 277.879 70.5435C277.879 65.332 279.3 61.4679 282.143 58.951C285.015 56.4045 289.294 54.998 294.979 54.7315L301.553 54.465V50.9118C301.553 46.2926 299.554 43.983 295.557 43.983C292.596 43.983 289.19 45.1378 285.341 47.4474L281.255 39.275C286.17 36.1659 291.515 34.6113 297.289 34.6113C302.53 34.6113 306.513 36.1215 309.237 39.1417C311.991 42.1323 313.368 46.3814 313.368 51.889V85.1117H304.706ZM294.446 76.7616C296.608 76.7616 298.325 75.7993 299.599 73.8746C300.901 71.9203 301.553 69.3294 301.553 66.1019V61.9268L297.911 62.1045C295.216 62.2526 293.232 63.0224 291.959 64.4141C290.715 65.8058 290.093 67.8785 290.093 70.6323C290.093 74.7185 291.544 76.7616 294.446 76.7616Z" fill="#838383"/>
<path d="M252.317 49.0884H272.171V82.4C266.545 84.7985 260.564 85.9977 254.227 85.9977C246.676 85.9977 240.858 83.1255 236.772 77.3811C232.715 71.6367 230.687 63.3606 230.687 52.5528C230.687 42.13 233.011 33.9723 237.66 28.0799C242.338 22.1874 248.868 19.2412 257.247 19.2412C262.429 19.2412 267.374 20.5737 272.082 23.2386L268.263 33.0988C264.591 30.9669 261.156 29.9009 257.958 29.9009C253.368 29.9009 249.726 31.9588 247.032 36.0747C244.367 40.1609 243.034 45.7425 243.034 52.8193C243.034 60.1035 243.997 65.685 245.921 69.564C247.876 73.4429 250.703 75.3824 254.405 75.3824C256.359 75.3824 258.343 75.1307 260.357 74.6273V59.7481H252.317V49.0884Z" fill="#838383"/>
<path d="M201.37 85.1105H189.555V16H201.37V85.1105Z" fill="#838383"/>
<path d="M180.516 85.1105H168.701V16H180.516V85.1105Z" fill="#838383"/>
<path d="M152.466 85.1087L148.735 68.7193H131.812L128.081 85.1087H116L132.079 19.9067H148.468L164.591 85.1087H152.466ZM146.47 58.0152L143.005 42.914C142.798 41.996 142.324 39.7012 141.584 36.0296C140.873 32.3283 140.444 29.8558 140.296 28.6122C139.911 31.1587 139.422 33.9716 138.83 37.0511C138.238 40.101 136.698 47.089 134.211 58.0152H146.47Z" fill="#838383"/>
</svg>
