<svg width="576" height="103" viewBox="0 0 576 103" fill="none" xmlns="http://www.w3.org/2000/svg">
<path d="M442.382 71.5536C442.382 76.4048 440.954 80.1994 438.096 82.9375C435.269 85.6458 431.088 87 425.552 87C420.641 87 416.579 86.0327 413.364 84.0982V73.7857C415.001 74.9167 416.906 75.8542 419.079 76.5982C421.281 77.3423 423.215 77.7143 424.882 77.7143C426.727 77.7143 428.126 77.2679 429.079 76.375C430.061 75.4524 430.552 74.247 430.552 72.7589C430.552 71.2411 430.046 69.9167 429.034 68.7857C428.022 67.6548 426.162 66.2708 423.454 64.6339C419.852 62.4911 417.263 60.2143 415.686 57.8036C414.138 55.3631 413.364 52.4911 413.364 49.1875C413.364 44.9613 414.808 41.6131 417.695 39.1429C420.611 36.6726 424.599 35.4375 429.659 35.4375C434.064 35.4375 438.215 36.5982 442.114 38.9196L438.23 47.4464C435.046 45.7202 432.248 44.8571 429.838 44.8571C428.32 44.8571 427.174 45.2589 426.4 46.0625C425.656 46.8661 425.284 47.8482 425.284 49.0089C425.284 50.3482 425.745 51.5387 426.668 52.5804C427.62 53.622 429.376 54.9167 431.936 56.4643C435.031 58.3393 437.204 59.9315 438.454 61.2411C439.704 62.5506 440.671 64.0387 441.355 65.7054C442.04 67.372 442.382 69.3214 442.382 71.5536Z" fill="#838383"/>
<path d="M392.895 87C386.674 87 381.764 84.7976 378.162 80.3929C374.591 75.9583 372.805 69.6935 372.805 61.5982C372.805 53.3839 374.427 46.9702 377.671 42.3571C380.915 37.744 385.439 35.4375 391.243 35.4375C396.66 35.4375 400.93 37.4167 404.055 41.375C407.18 45.3036 408.743 50.8244 408.743 57.9375V64.2768H384.859C384.948 68.7113 385.856 72.0149 387.582 74.1875C389.308 76.3304 391.689 77.4018 394.725 77.4018C398.594 77.4018 402.552 76.1964 406.6 73.7857V83.5625C402.79 85.8542 398.222 87 392.895 87ZM391.154 44.5893C389.457 44.5893 388.058 45.497 386.957 47.3125C385.856 49.0982 385.216 51.881 385.037 55.6607H397.091C397.032 52.0298 396.481 49.2768 395.439 47.4018C394.398 45.5268 392.969 44.5893 391.154 44.5893Z" fill="#838383"/>
<path d="M363.095 76.9553C364.761 76.9553 366.562 76.5386 368.496 75.7053V84.991C366.562 86.3303 363.66 86.9999 359.791 86.9999C355.476 86.9999 352.276 85.7202 350.193 83.1606C348.11 80.5714 347.068 76.7023 347.068 71.5535V45.7946H342.246V40.4821L348.452 36.1964L351.488 25.6606H359.077V36.3749H368.095V45.7946H359.077V71.9553C359.077 75.2886 360.416 76.9553 363.095 76.9553Z" fill="#838383"/>
<path d="M336.554 86.1071H324.679V36.375H336.554V86.1071ZM324.188 23.3839C324.188 21.4196 324.753 19.872 325.884 18.7411C327.045 17.5804 328.652 17 330.705 17C332.64 17 334.188 17.5804 335.348 18.7411C336.509 19.872 337.089 21.4196 337.089 23.3839C337.089 25.4077 336.494 26.9851 335.304 28.1161C334.113 29.2173 332.58 29.7679 330.705 29.7679C328.741 29.7679 327.164 29.2173 325.973 28.1161C324.783 26.9851 324.188 25.4077 324.188 23.3839Z" fill="#838383"/>
<path d="M315.905 35.4375C317.364 35.4375 318.792 35.6607 320.191 36.1071L318.807 47.625C317.974 47.3274 316.888 47.1786 315.548 47.1786C312.661 47.1786 310.444 48.3244 308.896 50.6161C307.349 52.878 306.575 56.1815 306.575 60.5268V86.1071H294.7V36.375H304.477L305.816 44.1429H306.218C307.527 41.0179 308.956 38.7857 310.504 37.4464C312.051 36.1071 313.852 35.4375 315.905 35.4375Z" fill="#838383"/>
<path d="M287.266 61.1518C287.266 69.3065 285.54 75.6607 282.087 80.2143C278.635 84.7381 273.903 87 267.891 87C264.082 87 260.718 85.9583 257.802 83.875C254.885 81.7917 252.638 78.8006 251.061 74.9018C249.483 70.9732 248.695 66.3899 248.695 61.1518C248.695 53.0863 250.406 46.7917 253.829 42.2679C257.251 37.7143 261.998 35.4375 268.07 35.4375C273.933 35.4375 278.59 37.7589 282.043 42.4018C285.525 47.0149 287.266 53.2649 287.266 61.1518ZM260.837 61.1518C260.837 66.3304 261.403 70.244 262.534 72.8929C263.665 75.5417 265.48 76.8661 267.98 76.8661C272.742 76.8661 275.123 71.628 275.123 61.1518C275.123 55.9435 274.543 52.0595 273.382 49.5C272.251 46.9107 270.451 45.6161 267.98 45.6161C265.48 45.6161 263.665 46.9107 262.534 49.5C261.403 52.0595 260.837 55.9435 260.837 61.1518Z" fill="#838383"/>
<path d="M218.493 86.1071L205.502 36.375H217.823L224.163 65.1696C224.43 66.5089 224.743 68.4732 225.1 71.0625C225.487 73.622 225.725 75.4673 225.814 76.5982H225.993C226.023 75.7054 226.142 74.4256 226.35 72.7589C226.588 71.0923 226.826 69.5595 227.064 68.1607C227.302 66.7619 229.594 56.1667 233.939 36.375H246.261L233.225 86.1071H218.493Z" fill="#838383"/>
<path d="M193.157 86.1071L190.791 79.3214H190.523C188.767 82.238 186.952 84.247 185.077 85.3481C183.202 86.4493 180.836 86.9999 177.979 86.9999C174.318 86.9999 171.431 85.6309 169.318 82.8928C167.235 80.1547 166.193 76.3452 166.193 71.4642C166.193 66.2261 167.621 62.3422 170.479 59.8124C173.365 57.2529 177.666 55.8392 183.38 55.5714L189.987 55.3035V51.7321C189.987 47.0892 187.979 44.7678 183.961 44.7678C180.985 44.7678 177.562 45.9285 173.693 48.2499L169.586 40.0356C174.526 36.9106 179.898 35.3481 185.702 35.3481C190.97 35.3481 194.973 36.866 197.711 39.9017C200.479 42.9077 201.862 47.1785 201.862 52.7142V86.1071H193.157ZM182.845 77.7142C185.017 77.7142 186.743 76.747 188.023 74.8124C189.333 72.8481 189.987 70.244 189.987 66.9999V62.8035L186.327 62.9821C183.618 63.1309 181.624 63.9047 180.345 65.3035C179.095 66.7023 178.47 68.7856 178.47 71.5535C178.47 75.6606 179.928 77.7142 182.845 77.7142Z" fill="#838383"/>
<path d="M145.054 86.1072H133V20.8394H162.241V31.3304H145.054V49.4554H161.08V59.9465H145.054V86.1072Z" fill="#838383"/>
</svg>
