<svg width="547" height="128" viewBox="0 0 547 128" fill="none" xmlns="http://www.w3.org/2000/svg">
<path d="M0 15V56.0274V97.0534H7.18586H14.3717V60.431V23.8087H23.1932C29.5548 23.8087 32.4269 23.9798 33.5078 24.4319C35.6412 25.3232 37.8373 28.0384 38.7372 30.879C39.2092 32.3721 39.5985 35.6035 39.7368 39.1943C40.022 46.5442 39.1692 51.1104 36.9261 54.0723C34.5859 57.164 33.1542 57.6517 26.5387 57.6517H20.8602V62.0995V66.5587L29.783 66.3862L38.7072 66.2122L41.8645 64.7206C47.6328 61.9997 51.8211 56.4338 53.511 49.2622C54.4551 45.2579 54.4408 36.3052 53.4811 32.0085C52.5598 27.8786 50.6418 23.7189 48.4842 21.2005C47.5815 20.148 45.836 18.6378 44.6168 17.8535C40.4342 15.1697 38.8241 15 18.4402 15H0ZM63.509 15V56.0274V97.0534H70.6935H77.8793V56.0274V15H70.6935H63.509ZM243.722 15C237.284 15.0014 230.662 15.2282 229.003 15.4934C225.264 16.0895 220.9 18.0674 218.429 20.302C215.936 22.5538 213.812 25.9335 212.662 29.4858C211.948 31.6933 211.722 33.7055 211.692 37.9465C211.653 43.7976 212.145 46.2903 214.157 50.2305C215.463 52.7945 218.95 56.4951 221.343 57.8784C224.12 59.4884 227.674 60.3412 233.785 60.8332C238.434 61.2096 239.518 61.4407 241.029 62.4432C242.218 63.2289 243.262 64.5152 244.144 66.3092C245.384 68.8347 245.454 69.3624 245.448 74.7985C245.443 80.2189 245.366 80.7536 244.171 83.0282C243.362 84.5726 242.196 85.9259 240.971 86.7373L239.043 88.0136L226.831 88.1591L214.634 88.2903V92.6782V97.0534H228.51C236.952 97.0534 243.358 96.8452 244.851 96.5314C250.532 95.335 255.26 91.6529 257.554 86.6375C259.489 82.4121 260.17 78.0698 259.916 71.5556C259.65 64.6864 258.632 60.9444 255.889 56.8388C252.482 51.7393 248.668 49.9909 238.984 49.1039C235.401 48.7759 231.731 48.1984 230.827 47.8148C228.835 46.9706 226.971 44.8458 226.15 42.4842C225.337 40.1555 225.35 33.4131 226.178 30.5639C226.994 27.7503 229.467 25.1592 232.075 24.3777C233.336 23.9984 237.568 23.813 244.693 23.813H255.428V19.4065V15.0029H243.722V15ZM408.866 15V21.0279V27.0544H416.052H423.238V21.0279V15H416.052H408.866ZM270.68 24.2722L270.828 53.8241C270.956 82.9141 270.976 83.4203 271.973 86.0585C272.528 87.5316 273.72 89.7377 274.621 90.9684C276.465 93.4783 278.861 95.238 281.894 96.299C283.353 96.8109 285.83 97.0091 290.542 97.0263L297.148 97.0548V92.6511V88.2475H292.832C288.723 88.2475 288.451 88.1919 287.283 86.9712C286.559 86.2168 285.848 84.7423 285.562 83.3776C285.247 81.9059 285.115 74.2437 285.197 62.2849L285.328 43.5124L293.093 43.3812L300.858 43.25V38.8635V34.4713H292.976H285.097V29.3717V24.2722H277.897H270.68ZM369.927 24.2722V53.4619C369.927 81.6934 369.96 82.7529 370.885 85.5651C371.983 88.912 374.219 92.2276 376.651 94.0829C377.578 94.7916 379.416 95.7442 380.733 96.1963C382.571 96.8309 384.626 97.0263 389.512 97.0377L395.885 97.0519V92.6483V88.2447H391.771C388.334 88.2447 387.464 88.0963 386.456 87.3006C385.79 86.7801 385.036 85.5822 384.773 84.6368C384.481 83.5829 384.294 75.2477 384.294 63.0949V43.2785H392.19H400.086L399.955 38.9904L399.824 34.7009L392.059 34.5725L384.297 34.4399V29.356V24.2722H377.111H369.927ZM357.251 34.3529L341.909 34.601C325.413 34.8549 323.704 35.0574 318.861 37.513C313.444 40.2582 309.668 45.5887 307.955 52.8972C307.239 55.9461 307.114 58.5715 307.114 70.1652C307.114 83.3291 307.152 83.9423 308.172 86.4621C310.227 91.5403 313.286 94.6747 317.689 96.1963C319.63 96.868 321.655 97.0234 328.323 97.0348L336.553 97.0505V92.6454V88.2418H330.787C325.329 88.2418 324.958 88.1748 323.66 87.0824C322.802 86.3623 322.103 85.1573 321.778 83.8667C321.132 81.3084 321.1 61.1398 321.733 56.2556C322.633 49.3178 324.196 46.065 327.458 44.3181C328.58 43.7192 330.516 43.5053 335.975 43.3627L343.044 43.1744V70.121V97.0519H350.464H357.881V79.7383C357.881 70.2208 357.731 56.113 357.56 48.3909L357.251 34.3529ZM139.533 34.3686L124.12 34.5996C107.37 34.8577 104.964 35.1643 100.391 37.6128C95.0789 40.4564 91.2856 46.0779 89.6841 53.4748C88.6674 58.1736 88.1911 77.4195 88.974 82.0713C89.6585 86.1312 91.5565 90.2183 93.8282 92.5299C95.4995 94.2312 98.2732 95.9082 100.592 96.6156C101.229 96.8109 105.556 96.9835 110.211 97.0049L118.67 97.0491V92.6454V88.2447H112.746C106.064 88.2447 105.184 87.9295 103.925 85.0574C103.361 83.7783 103.142 81.2613 102.998 74.4819C102.79 64.8475 103.46 54.3946 104.504 50.925C105.441 47.8091 107.186 45.4162 109.24 44.408C110.74 43.6721 112.119 43.5338 117.974 43.5238L124.926 43.5081L125.043 70.2793L125.16 97.0491H132.346H139.532V65.7031V34.3686H139.533ZM155.006 34.4698C150.83 34.4698 147.421 34.5226 147.429 34.5868C147.435 34.6509 152.201 48.6433 158.019 65.6903L168.594 96.6897L162.639 112.047C159.367 120.499 156.686 127.475 156.686 127.547C156.686 127.618 159.528 127.618 163.002 127.547L169.319 127.417L187.788 81.0588C197.951 55.5625 206.274 34.6509 206.274 34.5868C206.276 34.5226 203.276 34.4698 199.594 34.4698C194.74 34.4698 192.799 34.631 192.539 35.0517C192.344 35.3697 188.793 44.3823 184.66 55.0862C180.528 65.7873 176.963 74.6059 176.723 74.6858C176.481 74.7671 173.199 65.7516 169.437 54.6513L162.599 34.4698H155.006ZM408.866 34.4698V65.7602V97.0505H416.052H423.238V65.7602V34.4698H416.052H408.866ZM495.785 34.7009L495.651 65.8757H495.669L495.537 97.0505H502.968H510.385V70.121V43.1758L517.454 43.3655C524.958 43.5609 526.212 43.8732 528.319 46.1306C529.974 47.8989 531.154 51.1204 531.68 55.3129C531.953 57.5076 532.174 67.5812 532.174 78.144V97.0505H539.36H546.543L546.528 78.6231C546.526 59.0806 546.183 54.4431 544.298 49.1439C541.738 41.938 537.022 37.6656 529.35 35.585C526.813 34.8962 524.102 34.7764 511.081 34.7436L495.785 34.7009ZM459.453 34.832C455.4 34.832 451.361 35.3411 448.459 36.3394C444.596 37.6685 442.17 39.2243 439.736 41.9309C437.095 44.8686 435.183 48.8458 434.06 53.7086C433.373 56.6891 433.21 59.1904 433.25 66.4561C433.289 74.0983 433.44 76.0519 434.264 79.0737C435.66 84.2018 437.487 87.6528 440.261 90.4607C442.993 93.2244 447.032 95.3421 451.578 96.3731C453.623 96.8352 456.458 96.9806 460.792 96.8637C468.261 96.6655 471.815 95.7043 476.174 92.7224C479.829 90.224 482.592 86.2824 484.157 81.3212C486.396 74.2366 486.79 62.5587 485.072 53.9411C484.236 49.7542 482.205 45.2151 479.941 42.4528C477.813 39.856 474.328 37.5786 470.599 36.3394C467.585 35.3411 463.505 34.832 459.453 34.832ZM459.628 43.4653C461.731 43.4653 463.839 43.8718 465.493 44.7103C467.652 45.8055 469.009 47.7107 470.186 51.3157C470.958 53.673 471.15 55.8192 471.332 63.6154C471.568 73.7974 471.101 78.596 469.52 82.2153C468.407 84.7708 466.604 86.7573 464.623 87.6044C463.779 87.9652 461.549 88.2404 459.483 88.2404C456.552 88.2404 455.427 88.0336 453.79 87.1708C452.503 86.4892 451.261 85.3241 450.459 84.0264C448.364 80.6452 447.673 76.2117 447.645 66.2236C447.622 56.7162 448.113 52.8929 449.865 49.0269C450.458 47.715 451.656 46.1135 452.545 45.4333C454.233 44.1456 456.923 43.4653 459.628 43.4653Z" fill="black"/>
</svg>
