<svg width="651" height="113" viewBox="0 0 651 113" fill="none" xmlns="http://www.w3.org/2000/svg">
<path d="M25.7324 28.1C25.4324 29.9 25.5324 31.8 25.9324 33.8C26.4324 35.8 27.0324 37.6 27.6324 39.2C28.4324 41.1 29.4324 43 30.5324 44.9L42.3324 67.5C43.0324 68.9 43.6324 70.4 44.0324 72C44.4324 73.4 44.7324 75.1 44.9324 77C45.1324 78.9 45.0324 81 44.6324 83.3L42.3324 96.5C41.6324 99.5 40.4324 102.2 38.8324 104.5C38.1324 105.5 37.3324 106.5 36.3324 107.4C35.3324 108.4 34.2324 109.2 32.8324 110C31.5324 110.8 30.0324 111.4 28.3324 111.8C26.6324 112.3 24.7324 112.5 22.6324 112.5H14.2324C12.1324 112.5 10.3324 112.3 8.83242 111.8C7.33242 111.3 6.03242 110.7 4.93242 110C3.83242 109.3 3.03242 108.4 2.33242 107.4C1.63242 106.4 1.23242 105.5 0.832415 104.5C0.0324153 102.2 -0.167585 99.5 0.132415 96.5L4.43242 72H17.9324L13.6324 96.5C13.5324 97.1 13.6324 97.7 13.7324 98.2C13.9324 98.6 14.1324 99 14.5324 99.4C14.9324 99.8 15.5324 99.9 16.3324 99.9H24.7324C25.5324 99.9 26.2324 99.7 26.7324 99.4C27.2324 99 27.6324 98.7 27.9324 98.2C28.2324 97.7 28.5324 97.1 28.6324 96.5L30.7324 84.4C31.0324 82.6 30.9324 80.7 30.5324 78.7C30.0324 76.7 29.4324 74.9 28.8324 73.3C28.0324 71.4 27.0324 69.5 25.9324 67.6L14.3324 45C13.6324 43.6 13.0324 42.1 12.6324 40.5C12.2324 39.1 11.9324 37.4 11.7324 35.5C11.5324 33.6 11.6324 31.5 12.0324 29.2L14.3324 16C15.0324 13 16.2324 10.3 17.8324 8C18.5324 7 19.3324 6 20.3324 5.1C21.3324 4.1 22.4324 3.3 23.8324 2.5C25.1324 1.8 26.6324 1.1 28.3324 0.700001C30.0324 0.200001 31.9324 0 34.0324 0H42.4324C44.5324 0 46.3324 0.200001 47.8324 0.700001C49.3324 1.2 50.6324 1.8 51.7324 2.5C52.8324 3.3 53.6324 4.1 54.3324 5.1C54.9324 6.1 55.4324 7 55.8324 8C56.6324 10.3 56.8324 13 56.5324 16L52.2324 40.5H38.7324L43.0324 16C43.1324 15.4 43.0324 14.8 42.9324 14.3C42.7324 13.9 42.5324 13.5 42.1324 13.1C41.7324 12.7 41.1324 12.6 40.3324 12.6H31.9324C31.1324 12.6 30.4324 12.8 29.9324 13.1C29.4324 13.5 29.0324 13.8 28.7324 14.3C28.4324 14.8 28.1324 15.4 28.0324 16L25.7324 28.1Z" fill="#6B47DB"/>
<path d="M68.3324 0H81.8324L64.8324 96.5C64.7324 97.1 64.8324 97.7 64.9324 98.2C65.1324 98.6 65.3324 99 65.7324 99.4C66.1324 99.8 66.7324 99.9 67.5324 99.9H75.9324C76.7324 99.9 77.4324 99.7 77.9324 99.4C78.4324 99 78.8324 98.7 79.1324 98.2C79.4324 97.7 79.7324 97.1 79.8324 96.5L96.8324 0H110.332L93.3324 96.5C92.6324 99.5 91.4324 102.2 89.8324 104.5C89.1324 105.5 88.3324 106.5 87.3324 107.4C86.3324 108.4 85.2324 109.2 83.8324 110C82.5324 110.8 81.0324 111.4 79.3324 111.8C77.6324 112.3 75.7324 112.5 73.6324 112.5H65.2324C63.1324 112.5 61.3324 112.3 59.8324 111.8C58.3324 111.3 57.0324 110.7 55.9324 110C54.8324 109.3 54.0324 108.4 53.3324 107.4C52.6324 106.4 52.2324 105.5 51.8324 104.5C51.0324 102.2 50.8324 99.5 51.1324 96.5L68.3324 0Z" fill="#6B47DB"/>
<path d="M119.532 0H144.832C146.932 0 148.732 0.200001 150.232 0.700001C151.732 1.2 153.032 1.8 154.132 2.5C155.232 3.3 156.032 4.1 156.732 5.1C157.332 6.1 157.832 7 158.232 8C159.032 10.3 159.232 13 158.932 16L153.332 47.5C152.632 50.5 151.432 53.2 149.832 55.5C149.132 56.5 148.332 57.5 147.332 58.4C146.332 59.4 145.232 60.2 143.832 61C142.532 61.8 141.032 62.4 139.332 62.8C137.632 63.3 135.732 63.5 133.632 63.5H121.832L124.032 50.8H135.832C136.632 50.8 137.332 50.6 137.832 50.3C138.332 49.9 138.732 49.6 139.032 49.1C139.332 48.6 139.632 48 139.732 47.4L145.332 15.9C145.432 15.3 145.332 14.7 145.232 14.2C145.032 13.8 144.832 13.4 144.432 13C144.032 12.6 143.432 12.5 142.632 12.5H130.832L113.232 112.5H99.7324L119.532 0Z" fill="#6B47DB"/>
<path d="M175.233 50.9001H192.133L189.933 63.6001H173.033L166.633 99.9001H183.533L181.333 112.6H150.933L170.733 0.100098H201.133L198.933 12.8001H182.033L175.233 50.9001Z" fill="#6B47DB"/>
<path d="M210.133 0H235.433C237.533 0 239.333 0.200001 240.833 0.700001C242.333 1.2 243.633 1.8 244.733 2.5C245.833 3.3 246.633 4.1 247.333 5.1C247.933 6.1 248.433 7 248.833 8C249.633 10.3 249.833 13 249.533 16L243.933 47.5C243.533 49.6 242.733 51.4 241.333 53C239.933 54.6 238.333 56 236.533 57.2C237.933 58.4 239.033 59.8 239.833 61.4C240.633 63 240.833 64.8 240.533 66.9L232.533 112.5H219.033L227.033 66.9C227.133 66.3 227.033 65.7 226.933 65.2C226.733 64.8 226.533 64.4 226.133 64C225.733 63.6 225.133 63.5 224.333 63.5H212.533L203.933 112.4H190.433L210.133 0ZM214.633 50.9H223.633H226.433C227.233 50.9 227.933 50.7 228.433 50.4C228.933 50 229.333 49.7 229.633 49.2C229.933 48.7 230.233 48.1 230.333 47.5L235.933 16C236.033 15.4 235.933 14.8 235.833 14.3C235.633 13.9 235.433 13.5 235.033 13.1C234.633 12.7 234.033 12.6 233.233 12.6H221.333L214.633 50.9Z" fill="#6B47DB"/>
<path d="M269.532 112.5L289.332 0H302.832L283.032 112.5H269.532ZM294.932 45L302.832 0L310.032 67.5L302.132 112.5L294.932 45ZM302.232 112.5L322.032 0H335.532L315.732 112.5H302.232Z" fill="#6B47DB"/>
<path d="M344.532 0H358.032L338.232 112.5H324.732L344.532 0Z" fill="#6B47DB"/>
<path d="M347.232 112.5L367.032 0H380.532L360.732 112.5H347.232ZM372.632 45L380.532 0L387.732 67.5L379.832 112.5L372.632 45ZM379.832 112.5L399.632 0H413.132L393.332 112.5H379.832Z" fill="#6B47DB"/>
<path d="M422.133 0H455.333L453.133 12.7H444.133L426.533 112.5H411.333L428.933 12.7H419.933L422.133 0Z" fill="#6B47DB"/>
<path d="M468.832 50.9H485.732L483.532 63.6H466.632L460.232 99.9H477.132L474.932 112.6H444.532L464.332 0H494.732L492.532 12.7H475.632L468.832 50.9Z" fill="#6B47DB"/>
<path d="M483.933 112.5L503.733 0H517.233L497.433 112.5H483.933ZM509.333 45L517.233 0L524.433 67.5L516.533 112.5L509.333 45ZM516.533 112.5L536.333 0H549.833L530.033 112.5H516.533Z" fill="#6B47DB"/>
<path d="M558.832 0H585.332C587.432 0 589.232 0.200001 590.732 0.700001C592.232 1.2 593.532 1.8 594.632 2.5C595.732 3.3 596.532 4.1 597.232 5.1C597.832 6.1 598.332 7 598.732 8C599.532 10.3 599.732 13 599.432 16L585.132 96.5C584.432 99.5 583.232 102.2 581.632 104.5C580.932 105.5 580.132 106.5 579.132 107.4C578.132 108.4 577.032 109.2 575.632 110C574.332 110.8 572.832 111.4 571.132 111.8C569.432 112.3 567.532 112.5 565.432 112.5H539.032L558.832 0ZM554.732 99.8H567.632C568.432 99.8 569.132 99.6 569.632 99.3C570.132 98.9 570.532 98.6 570.832 98.1C571.132 97.6 571.432 97 571.532 96.4L585.732 16C585.832 15.4 585.732 14.8 585.632 14.3C585.432 13.9 585.232 13.5 584.832 13.1C584.432 12.7 583.832 12.6 583.032 12.6H570.132L554.732 99.8Z" fill="#6B47DB"/>
<path d="M608.332 16C609.032 13 610.232 10.3 611.832 8C612.532 7 613.332 6 614.332 5.1C615.332 4.1 616.432 3.3 617.832 2.5C619.132 1.8 620.632 1.1 622.332 0.700001C624.032 0.200001 625.932 0 628.032 0H636.432C638.532 0 640.332 0.200001 641.832 0.700001C643.332 1.2 644.632 1.8 645.732 2.5C646.832 3.3 647.632 4.1 648.332 5.1C648.932 6.1 649.432 7 649.832 8C650.632 10.3 650.832 13 650.532 16L636.332 96.5C635.632 99.5 634.432 102.2 632.832 104.5C632.132 105.5 631.332 106.5 630.332 107.4C629.332 108.4 628.232 109.2 626.832 110C625.532 110.8 624.032 111.4 622.332 111.8C620.632 112.3 618.732 112.5 616.632 112.5H608.232C606.132 112.5 604.332 112.3 602.832 111.8C601.332 111.3 600.032 110.7 598.932 110C597.832 109.3 597.032 108.4 596.332 107.4C595.632 106.4 595.232 105.5 594.832 104.5C594.032 102.2 593.832 99.5 594.132 96.5L608.332 16ZM607.632 96.5C607.532 97.1 607.632 97.7 607.732 98.2C607.932 98.6 608.132 99 608.532 99.4C608.932 99.8 609.532 99.9 610.332 99.9H618.732C619.532 99.9 620.232 99.7 620.732 99.4C621.232 99 621.632 98.7 621.932 98.2C622.232 97.7 622.532 97.1 622.632 96.5L636.832 16.1C636.932 15.5 636.832 14.9 636.732 14.4C636.532 14 636.332 13.6 635.932 13.2C635.532 12.8 634.932 12.7 634.132 12.7H625.732C624.932 12.7 624.232 12.9 623.732 13.2C623.232 13.6 622.832 13.9 622.532 14.4C622.232 14.9 621.932 15.5 621.832 16.1L607.632 96.5Z" fill="#6B47DB"/>
<path d="M25.7324 28.1C25.4324 29.9 25.5324 31.8 25.9324 33.8C26.4324 35.8 27.0324 37.6 27.6324 39.2C28.4324 41.1 29.4324 43 30.5324 44.9L42.3324 67.5C43.0324 68.9 43.6324 70.4 44.0324 72C44.4324 73.4 44.7324 75.1 44.9324 77C45.1324 78.9 45.0324 81 44.6324 83.3L42.3324 96.5C41.6324 99.5 40.4324 102.2 38.8324 104.5C38.1324 105.5 37.3324 106.5 36.3324 107.4C35.3324 108.4 34.2324 109.2 32.8324 110C31.5324 110.8 30.0324 111.4 28.3324 111.8C26.6324 112.3 24.7324 112.5 22.6324 112.5H14.2324C12.1324 112.5 10.3324 112.3 8.83242 111.8C7.33242 111.3 6.03242 110.7 4.93242 110C3.83242 109.3 3.03242 108.4 2.33242 107.4C1.63242 106.4 1.23242 105.5 0.832415 104.5C0.0324153 102.2 -0.167585 99.5 0.132415 96.5L4.43242 72H17.9324L13.6324 96.5C13.5324 97.1 13.6324 97.7 13.7324 98.2C13.9324 98.6 14.1324 99 14.5324 99.4C14.9324 99.8 15.5324 99.9 16.3324 99.9H24.7324C25.5324 99.9 26.2324 99.7 26.7324 99.4C27.2324 99 27.6324 98.7 27.9324 98.2C28.2324 97.7 28.5324 97.1 28.6324 96.5L30.7324 84.4C31.0324 82.6 30.9324 80.7 30.5324 78.7C30.0324 76.7 29.4324 74.9 28.8324 73.3C28.0324 71.4 27.0324 69.5 25.9324 67.6L14.3324 45C13.6324 43.6 13.0324 42.1 12.6324 40.5C12.2324 39.1 11.9324 37.4 11.7324 35.5C11.5324 33.6 11.6324 31.5 12.0324 29.2L14.3324 16C15.0324 13 16.2324 10.3 17.8324 8C18.5324 7 19.3324 6 20.3324 5.1C21.3324 4.1 22.4324 3.3 23.8324 2.5C25.1324 1.8 26.6324 1.1 28.3324 0.700001C30.0324 0.200001 31.9324 0 34.0324 0H42.4324C44.5324 0 46.3324 0.200001 47.8324 0.700001C49.3324 1.2 50.6324 1.8 51.7324 2.5C52.8324 3.3 53.6324 4.1 54.3324 5.1C54.9324 6.1 55.4324 7 55.8324 8C56.6324 10.3 56.8324 13 56.5324 16L52.2324 40.5H38.7324L43.0324 16C43.1324 15.4 43.0324 14.8 42.9324 14.3C42.7324 13.9 42.5324 13.5 42.1324 13.1C41.7324 12.7 41.1324 12.6 40.3324 12.6H31.9324C31.1324 12.6 30.4324 12.8 29.9324 13.1C29.4324 13.5 29.0324 13.8 28.7324 14.3C28.4324 14.8 28.1324 15.4 28.0324 16L25.7324 28.1Z" fill="#6B47DB"/>
<path d="M68.3324 0H81.8324L64.8324 96.5C64.7324 97.1 64.8324 97.7 64.9324 98.2C65.1324 98.6 65.3324 99 65.7324 99.4C66.1324 99.8 66.7324 99.9 67.5324 99.9H75.9324C76.7324 99.9 77.4324 99.7 77.9324 99.4C78.4324 99 78.8324 98.7 79.1324 98.2C79.4324 97.7 79.7324 97.1 79.8324 96.5L96.8324 0H110.332L93.3324 96.5C92.6324 99.5 91.4324 102.2 89.8324 104.5C89.1324 105.5 88.3324 106.5 87.3324 107.4C86.3324 108.4 85.2324 109.2 83.8324 110C82.5324 110.8 81.0324 111.4 79.3324 111.8C77.6324 112.3 75.7324 112.5 73.6324 112.5H65.2324C63.1324 112.5 61.3324 112.3 59.8324 111.8C58.3324 111.3 57.0324 110.7 55.9324 110C54.8324 109.3 54.0324 108.4 53.3324 107.4C52.6324 106.4 52.2324 105.5 51.8324 104.5C51.0324 102.2 50.8324 99.5 51.1324 96.5L68.3324 0Z" fill="#6B47DB"/>
<path d="M119.532 0H144.832C146.932 0 148.732 0.200001 150.232 0.700001C151.732 1.2 153.032 1.8 154.132 2.5C155.232 3.3 156.032 4.1 156.732 5.1C157.332 6.1 157.832 7 158.232 8C159.032 10.3 159.232 13 158.932 16L153.332 47.5C152.632 50.5 151.432 53.2 149.832 55.5C149.132 56.5 148.332 57.5 147.332 58.4C146.332 59.4 145.232 60.2 143.832 61C142.532 61.8 141.032 62.4 139.332 62.8C137.632 63.3 135.732 63.5 133.632 63.5H121.832L124.032 50.8H135.832C136.632 50.8 137.332 50.6 137.832 50.3C138.332 49.9 138.732 49.6 139.032 49.1C139.332 48.6 139.632 48 139.732 47.4L145.332 15.9C145.432 15.3 145.332 14.7 145.232 14.2C145.032 13.8 144.832 13.4 144.432 13C144.032 12.6 143.432 12.5 142.632 12.5H130.832L113.232 112.5H99.7324L119.532 0Z" fill="#6B47DB"/>
<path d="M175.233 50.9001H192.133L189.933 63.6001H173.033L166.633 99.9001H183.533L181.333 112.6H150.933L170.733 0.100098H201.133L198.933 12.8001H182.033L175.233 50.9001Z" fill="#6B47DB"/>
<path d="M210.133 0H235.433C237.533 0 239.333 0.200001 240.833 0.700001C242.333 1.2 243.633 1.8 244.733 2.5C245.833 3.3 246.633 4.1 247.333 5.1C247.933 6.1 248.433 7 248.833 8C249.633 10.3 249.833 13 249.533 16L243.933 47.5C243.533 49.6 242.733 51.4 241.333 53C239.933 54.6 238.333 56 236.533 57.2C237.933 58.4 239.033 59.8 239.833 61.4C240.633 63 240.833 64.8 240.533 66.9L232.533 112.5H219.033L227.033 66.9C227.133 66.3 227.033 65.7 226.933 65.2C226.733 64.8 226.533 64.4 226.133 64C225.733 63.6 225.133 63.5 224.333 63.5H212.533L203.933 112.4H190.433L210.133 0ZM214.633 50.9H223.633H226.433C227.233 50.9 227.933 50.7 228.433 50.4C228.933 50 229.333 49.7 229.633 49.2C229.933 48.7 230.233 48.1 230.333 47.5L235.933 16C236.033 15.4 235.933 14.8 235.833 14.3C235.633 13.9 235.433 13.5 235.033 13.1C234.633 12.7 234.033 12.6 233.233 12.6H221.333L214.633 50.9Z" fill="#6B47DB"/>
<path d="M269.532 112.5L289.332 0H302.832L283.032 112.5H269.532ZM294.932 45L302.832 0L310.032 67.5L302.132 112.5L294.932 45ZM302.232 112.5L322.032 0H335.532L315.732 112.5H302.232Z" fill="#6B47DB"/>
<path d="M344.532 0H358.032L338.232 112.5H324.732L344.532 0Z" fill="#6B47DB"/>
<path d="M347.232 112.5L367.032 0H380.532L360.732 112.5H347.232ZM372.632 45L380.532 0L387.732 67.5L379.832 112.5L372.632 45ZM379.832 112.5L399.632 0H413.132L393.332 112.5H379.832Z" fill="#6B47DB"/>
<path d="M422.133 0H455.333L453.133 12.7H444.133L426.533 112.5H411.333L428.933 12.7H419.933L422.133 0Z" fill="#6B47DB"/>
<path d="M468.832 50.9H485.732L483.532 63.6H466.632L460.232 99.9H477.132L474.932 112.6H444.532L464.332 0H494.732L492.532 12.7H475.632L468.832 50.9Z" fill="#6B47DB"/>
<path d="M483.933 112.5L503.733 0H517.233L497.433 112.5H483.933ZM509.333 45L517.233 0L524.433 67.5L516.533 112.5L509.333 45ZM516.533 112.5L536.333 0H549.833L530.033 112.5H516.533Z" fill="#6B47DB"/>
<path d="M558.832 0H585.332C587.432 0 589.232 0.200001 590.732 0.700001C592.232 1.2 593.532 1.8 594.632 2.5C595.732 3.3 596.532 4.1 597.232 5.1C597.832 6.1 598.332 7 598.732 8C599.532 10.3 599.732 13 599.432 16L585.132 96.5C584.432 99.5 583.232 102.2 581.632 104.5C580.932 105.5 580.132 106.5 579.132 107.4C578.132 108.4 577.032 109.2 575.632 110C574.332 110.8 572.832 111.4 571.132 111.8C569.432 112.3 567.532 112.5 565.432 112.5H539.032L558.832 0ZM554.732 99.8H567.632C568.432 99.8 569.132 99.6 569.632 99.3C570.132 98.9 570.532 98.6 570.832 98.1C571.132 97.6 571.432 97 571.532 96.4L585.732 16C585.832 15.4 585.732 14.8 585.632 14.3C585.432 13.9 585.232 13.5 584.832 13.1C584.432 12.7 583.832 12.6 583.032 12.6H570.132L554.732 99.8Z" fill="#6B47DB"/>
<path d="M608.332 16C609.032 13 610.232 10.3 611.832 8C612.532 7 613.332 6 614.332 5.1C615.332 4.1 616.432 3.3 617.832 2.5C619.132 1.8 620.632 1.1 622.332 0.700001C624.032 0.200001 625.932 0 628.032 0H636.432C638.532 0 640.332 0.200001 641.832 0.700001C643.332 1.2 644.632 1.8 645.732 2.5C646.832 3.3 647.632 4.1 648.332 5.1C648.932 6.1 649.432 7 649.832 8C650.632 10.3 650.832 13 650.532 16L636.332 96.5C635.632 99.5 634.432 102.2 632.832 104.5C632.132 105.5 631.332 106.5 630.332 107.4C629.332 108.4 628.232 109.2 626.832 110C625.532 110.8 624.032 111.4 622.332 111.8C620.632 112.3 618.732 112.5 616.632 112.5H608.232C606.132 112.5 604.332 112.3 602.832 111.8C601.332 111.3 600.032 110.7 598.932 110C597.832 109.3 597.032 108.4 596.332 107.4C595.632 106.4 595.232 105.5 594.832 104.5C594.032 102.2 593.832 99.5 594.132 96.5L608.332 16ZM607.632 96.5C607.532 97.1 607.632 97.7 607.732 98.2C607.932 98.6 608.132 99 608.532 99.4C608.932 99.8 609.532 99.9 610.332 99.9H618.732C619.532 99.9 620.232 99.7 620.732 99.4C621.232 99 621.632 98.7 621.932 98.2C622.232 97.7 622.532 97.1 622.632 96.5L636.832 16.1C636.932 15.5 636.832 14.9 636.732 14.4C636.532 14 636.332 13.6 635.932 13.2C635.532 12.8 634.932 12.7 634.132 12.7H625.732C624.932 12.7 624.232 12.9 623.732 13.2C623.232 13.6 622.832 13.9 622.532 14.4C622.232 14.9 621.932 15.5 621.832 16.1L607.632 96.5Z" fill="#6B47DB"/>
<path d="M302.133 112.5H303.133L310.333 67.5H309.333L302.133 112.5Z" fill="#6B47DB"/>
</svg>
