<svg width="576" height="103" viewBox="0 0 576 103" fill="none" xmlns="http://www.w3.org/2000/svg">
<path d="M402.968 76.3723C404.731 76.3723 406.636 75.9315 408.683 75.0498V84.8744C406.636 86.2914 403.566 86.9999 399.472 86.9999C394.906 86.9999 391.521 85.6458 389.317 82.9378C387.113 80.1982 386.011 76.1047 386.011 70.6571V43.4034H380.91V37.7826L387.475 33.2482L390.687 22.1011H398.717V33.4371H408.258V43.4034H398.717V71.0822C398.717 74.6089 400.134 76.3723 402.968 76.3723Z" fill="#838383"/>
<path d="M362.842 86.0553V54.6923C362.842 50.8821 362.385 48.0009 361.472 46.0486C360.559 44.0962 359.079 43.1201 357.032 43.1201C354.324 43.1201 352.34 44.4741 351.081 47.1822C349.821 49.8587 349.191 54.3931 349.191 60.7854V86.0553H336.627V33.4372H346.594L348.105 40.1916H348.908C350.042 37.7669 351.663 35.8776 353.773 34.5236C355.883 33.1381 358.355 32.4453 361.189 32.4453C365.975 32.4453 369.549 34.0827 371.911 37.3576C374.304 40.6324 375.5 45.4188 375.5 51.7166V86.0553H362.842Z" fill="#838383"/>
<path d="M312.514 87C305.932 87 300.737 84.6698 296.927 80.0094C293.148 75.3176 291.259 68.6891 291.259 60.1241C291.259 51.4332 292.975 44.6473 296.407 39.7665C299.839 34.8857 304.626 32.4453 310.766 32.4453C316.497 32.4453 321.016 34.5393 324.322 38.7274C327.628 42.8839 329.281 48.7251 329.281 56.251V62.9581H304.012C304.106 67.65 305.066 71.1453 306.893 73.444C308.719 75.7112 311.238 76.8448 314.45 76.8448C318.544 76.8448 322.732 75.5695 327.014 73.0189V83.363C322.984 85.7876 318.15 87 312.514 87ZM310.671 42.1282C308.877 42.1282 307.397 43.0886 306.232 45.0094C305.066 46.8988 304.389 49.843 304.201 53.8421H316.954C316.891 50.0004 316.308 47.0877 315.206 45.1039C314.104 43.1201 312.592 42.1282 310.671 42.1282Z" fill="#838383"/>
<path d="M275.553 87C269.286 87 264.516 84.717 261.241 80.1511C257.966 75.5852 256.328 68.8781 256.328 60.0297C256.328 50.7719 257.871 43.8601 260.957 39.2942C264.075 34.7283 268.877 32.4453 275.364 32.4453C277.316 32.4453 279.363 32.7287 281.504 33.2955C283.645 33.8623 285.566 34.681 287.266 35.7517L283.677 45.529C281.063 43.986 278.749 43.2145 276.733 43.2145C274.057 43.2145 272.12 44.6158 270.924 47.4183C269.759 50.1894 269.176 54.3616 269.176 59.9352C269.176 65.3828 269.759 69.4606 270.924 72.1687C272.089 74.8452 273.994 76.1835 276.639 76.1835C279.788 76.1835 283.078 75.0814 286.511 72.8772V83.9298C283.204 85.9766 279.552 87 275.553 87Z" fill="#838383"/>
<path d="M234.057 87C227.476 87 222.28 84.6698 218.47 80.0094C214.691 75.3176 212.802 68.6891 212.802 60.1241C212.802 51.4332 214.518 44.6473 217.95 39.7665C221.383 34.8857 226.169 32.4453 232.309 32.4453C238.04 32.4453 242.559 34.5393 245.865 38.7274C249.172 42.8839 250.825 48.7251 250.825 56.251V62.9581H225.555C225.649 67.65 226.61 71.1453 228.436 73.444C230.263 75.7112 232.782 76.8448 235.994 76.8448C240.087 76.8448 244.275 75.5695 248.558 73.0189V83.363C244.527 85.7876 239.693 87 234.057 87ZM232.215 42.1282C230.42 42.1282 228.94 43.0886 227.775 45.0094C226.61 46.8988 225.933 49.843 225.744 53.8421H238.497C238.434 50.0004 237.851 47.0877 236.749 45.1039C235.647 43.1201 234.136 42.1282 232.215 42.1282Z" fill="#838383"/>
<path d="M180.848 59.1795V86.0553H168V17H184.815C191.932 17 197.175 18.6847 200.544 22.054C203.945 25.4233 205.645 30.5717 205.645 37.4993C205.645 46.2218 202.701 52.3149 196.812 55.7787L210.085 86.0553H196.34L185.429 59.1795H180.848ZM180.848 48.1269H184.154C187.177 48.1269 189.35 47.2767 190.672 45.5762C191.995 43.8444 192.656 41.278 192.656 37.8772C192.656 34.3504 191.947 31.8471 190.53 30.3671C189.145 28.8556 186.988 28.0999 184.059 28.0999H180.848V48.1269Z" fill="#838383"/>
</svg>
