<svg width="365" height="145" viewBox="0 0 365 145" fill="none" xmlns="http://www.w3.org/2000/svg">
<path d="M61.9701 30.9195C65.4776 26.4326 72.7369 25.6656 77.0404 29.4301C78.8001 30.9121 80.0334 32.9569 80.6638 35.1584C88.6307 62.5712 96.6333 89.9707 104.589 117.386C99.8876 117.391 95.1839 117.378 90.4825 117.391C88.2646 109.832 86.0995 102.261 83.9099 94.6959C74.8174 94.6773 65.7301 94.6915 56.6383 94.687C54.4123 102.249 52.2145 109.818 50.0294 117.394C45.3532 117.378 40.6769 117.391 36 117.386C43.5689 91.2351 51.1468 65.086 58.7521 38.9436C59.6565 36.2113 59.998 33.1544 61.9701 30.9195ZM70.2704 47.7184C66.9366 59.0748 63.6704 70.4528 60.3552 81.8151C66.9633 81.8471 73.5685 81.827 80.1737 81.827C76.8674 70.4572 73.5774 59.0882 70.2704 47.7184Z" fill="black"/>
<path d="M161.017 31.5088C163.468 27.9545 168.205 26.2304 172.374 27.3278C176.192 28.2069 179.112 31.4969 180.121 35.2012C188.08 62.594 196.067 89.9771 204.025 117.37C199.316 117.406 194.611 117.37 189.902 117.388C187.713 109.824 185.548 102.251 183.343 94.686C174.266 94.6905 165.191 94.6704 156.115 94.6934C153.945 102.263 151.708 109.816 149.539 117.386C144.867 117.391 140.198 117.382 135.525 117.391C143.09 91.096 150.744 64.8244 158.37 38.5484C159.169 36.1754 159.478 33.5596 161.017 31.5088ZM159.871 81.826C166.452 81.8349 173.029 81.8305 179.609 81.8305C176.336 70.4362 173.009 59.0582 169.746 47.6654C166.46 59.0538 163.142 70.4317 159.871 81.826Z" fill="black"/>
<path d="M94.0637 27.189C111.074 27.189 128.08 27.189 145.087 27.189C145.087 31.7791 145.087 36.3625 145.087 40.9496C138.823 40.954 132.565 40.9422 126.305 40.954C126.305 66.4312 126.309 91.9091 126.301 117.385C121.817 117.385 117.33 117.385 112.846 117.385C112.846 91.9091 112.842 66.4312 112.849 40.954C106.586 40.9422 100.327 40.954 94.0637 40.9496C94.0637 36.3625 94.0599 31.7791 94.0637 27.189Z" fill="black"/>
<path d="M218.978 27.7505C220.27 27.3036 221.649 27.1514 223.014 27.1833C228.377 27.2018 233.74 27.1877 239.102 27.1907C248.133 27.3578 256.753 32.9606 260.661 41.0894C263.368 46.3678 263.647 52.5067 262.964 58.2974C262.494 64.3591 259.951 70.4208 255.292 74.4392C252.831 76.6318 249.765 77.9616 247.13 79.9151C245.684 81.0155 245.61 83.1561 246.359 84.6878C253.476 95.676 260.875 106.493 268.143 117.386C262.828 117.395 257.513 117.375 252.198 117.395C245.24 106.946 238.355 96.443 231.426 85.9783C229.389 82.9994 228.835 79.0553 230.056 75.6562C231.007 73.0485 233.286 71.1418 235.823 70.1573C240.668 68.3085 245.445 65.4053 248.128 60.8323C250.169 57.3968 250.063 53.1579 249.145 49.3979C248.069 44.5168 243.313 40.6766 238.287 40.8444C234.811 40.8674 231.337 40.8288 227.867 40.86C226.296 40.8236 224.818 42.1898 224.838 43.781C224.821 68.3181 224.846 92.8567 224.83 117.392C220.311 117.384 215.796 117.392 211.276 117.388C211.267 90.973 211.284 64.5566 211.267 38.1417C211.295 33.5123 214.588 29.1553 218.978 27.7505Z" fill="black"/>
<path d="M275.25 27.189C280.003 27.189 284.756 27.189 289.513 27.189C289.508 57.2569 289.522 87.3205 289.504 117.388C284.755 117.375 280.003 117.388 275.25 117.384C275.25 87.316 275.25 57.2525 275.25 27.189Z" fill="black"/>
<path d="M325.702 100.732H328.644V117.4L314.783 106.104C313.483 105.043 311.873 103.81 310.161 103.81C307.457 103.81 305.233 106.208 305.233 108.875C305.233 111.512 307.353 113.668 309.954 113.84V117.058C305.367 116.545 302.288 113.566 302.288 108.875C302.288 104.496 305.539 100.729 310.023 100.729C311.94 100.729 313.858 101.449 315.329 102.645L325.701 111.135L325.702 100.732Z" fill="black"/>
<path d="M303.863 85.977L313.173 92.8569L313.243 92.7886C312.865 92.0343 312.627 91.1804 312.627 90.2553C312.627 86.0119 316.564 82.7939 320.705 82.7939C325.427 82.7939 329.194 86.6282 329.194 91.317C329.194 95.766 325.497 99.9091 320.947 99.9091C318.343 99.9091 316.155 98.6083 314.134 97.1033L302.292 88.3047L303.863 85.977ZM321.047 85.8738C317.829 85.8738 315.501 88.6121 315.501 91.3497C315.501 94.1571 318.069 96.8271 320.874 96.8271C323.853 96.8271 326.318 94.2952 326.318 91.3497C326.319 88.474 323.922 85.8738 321.047 85.8738Z" fill="black"/>
<path d="M302.289 68.7709C302.289 76.1624 308.349 82.1751 315.799 82.1751C323.189 82.1751 329.2 76.1624 329.2 68.7709C329.2 61.1663 323.29 55.207 315.745 55.207C308.2 55.207 302.289 61.1663 302.289 68.7709ZM315.799 58.376C321.631 58.376 326.197 63.0151 326.197 68.9365C326.197 74.4896 321.533 79.0069 315.799 79.0069C310.007 79.0069 305.295 74.4896 305.295 68.9365C305.295 62.9148 309.81 58.376 315.799 58.376Z" fill="black"/>
<path d="M302.289 40.5883C302.289 47.9783 308.349 53.991 315.799 53.991C323.189 53.991 329.2 47.9783 329.2 40.5883C329.2 32.9822 323.29 27.0229 315.745 27.0229C308.2 27.0229 302.289 32.9822 302.289 40.5883ZM315.799 30.1919C321.631 30.1919 326.197 34.8295 326.197 40.7524C326.197 46.3055 321.533 50.8228 315.799 50.8228C310.007 50.8228 305.295 46.3055 305.295 40.7524C305.295 34.7322 309.81 30.1919 315.799 30.1919Z" fill="black"/>
</svg>
