<svg width="512" height="127" viewBox="0 0 512 127" fill="none" xmlns="http://www.w3.org/2000/svg">
<rect x="6.5" y="8.5" width="497" height="113" rx="49.5" fill="white" stroke="black"/>
<path d="M66.9662 126.134C26.8232 126.12 0 97.672 0 63.1792C0 28.6864 26.8844 -0.0881869 66.905 0.000203143H445.095C485.116 -0.0881969 512 28.6864 512 63.1792C512 97.672 485.177 126.12 445.034 126.134H66.9662ZM67.0886 15.5162C35.3087 15.5774 15.8015 36.8184 15.8015 63.0976C15.8015 89.3701 35.1863 110.788 67.0886 110.672H444.911C476.814 110.781 496.205 89.3701 496.205 63.0976C496.205 36.8252 476.698 15.5842 444.918 15.523L67.0886 15.5162ZM465.234 37.6955C468.124 37.6955 469.559 38.6746 469.559 40.6124C469.559 41.945 468.729 42.9513 467.349 43.2981L469.613 47.8196H466.873L464.935 43.6721H463.732V47.8196H461.264V37.6955H465.234ZM465.01 33.7383C459.965 33.7383 455.872 37.8315 455.872 42.8765C455.872 47.9216 459.965 52.0148 465.01 52.0148C470.055 52.0148 474.148 47.9216 474.148 42.8765C474.148 37.8315 470.055 33.7383 465.01 33.7383ZM472.401 42.8833C472.401 46.9629 469.09 50.2742 465.01 50.2742C460.931 50.2742 457.619 46.9629 457.619 42.8833C457.619 38.8037 460.931 35.4925 465.01 35.4925C469.09 35.4925 472.401 38.797 472.401 42.8833ZM463.732 42.1898H464.935C466.343 42.1898 467.023 41.7614 467.023 40.7551C467.023 39.7013 466.295 39.2457 464.813 39.2457H463.732V42.1898ZM257.197 66.9324C257.169 63.4716 257.244 61.1598 258.38 59.188C259.774 56.7539 262.337 55.598 264.662 55.5844H264.655C266.981 55.598 269.544 56.7539 270.938 59.188C272.073 61.1666 272.121 63.4784 272.094 66.9392L257.197 66.9324ZM272.033 78.838C272.033 78.838 272.046 79.0148 272.046 81.2313C272.046 88.4522 267.294 90.0568 264.655 90.0568C262.017 90.0568 257.183 88.4522 257.183 81.2313C257.183 79.0692 257.197 73.079 257.197 73.079C257.197 73.079 290.833 73.0926 290.833 73.072C290.833 60.8265 279.009 50.6819 264.486 50.6819C249.962 50.6819 238.193 60.6089 238.193 72.8544C238.193 85.0999 249.962 95.0201 264.486 95.0201C276.534 95.0201 286.712 88.146 289.82 78.8242L272.033 78.838ZM328.215 51.3416C334.892 51.1513 348.436 55.5232 348.341 71.1547C348.328 73.9289 348.334 92.6405 348.334 92.6405H330.595C330.595 92.6405 330.595 69.1762 330.595 66.708C330.595 63.2676 327.304 59.4396 322.436 59.4396C317.574 59.4396 313.957 63.2676 313.957 66.708C313.957 68.3943 313.977 92.6405 313.977 92.6405H296.252L296.265 53.1571L313.984 53.1435C313.984 53.1435 313.964 56.3187 313.984 57.2978C317.397 54.041 322.32 51.5116 328.215 51.3416ZM183.105 51.3416C189.782 51.1513 203.326 55.5232 203.231 71.1547C203.217 73.9289 203.224 92.6405 203.224 92.6405H185.484C185.484 92.6405 185.484 69.1762 185.484 66.708C185.484 63.2676 182.194 59.4396 177.325 59.4396C172.464 59.4396 168.847 63.2676 168.847 66.708C168.847 68.3943 168.867 92.6405 168.867 92.6405H151.141L151.134 53.1571L168.874 53.1435C168.874 53.1435 168.853 56.3187 168.874 57.2978C172.287 54.041 177.203 51.5116 183.105 51.3416ZM386.825 33.276H404.449V92.6541H386.798C386.798 92.6541 386.791 90.7367 386.791 90.3696C379.958 94.6599 372.247 94.6531 366.243 91.8518C364.632 91.1039 354.032 86.018 354.032 72.2766C354.032 61.8533 363.864 50.4713 376.735 51.6C380.971 51.974 383.983 53.5174 386.839 55.122C386.825 45.9838 386.825 33.276 386.825 33.276ZM386.954 72.7118C386.954 72.7118 386.954 67.7619 386.954 65.6541C386.954 59.5484 382.739 57.9914 379.965 57.9914C377.123 57.9914 372.961 59.5484 372.961 65.6541C372.961 67.6803 372.968 72.6914 372.968 72.6914C372.968 72.6914 372.961 77.6141 372.961 79.715C372.961 85.814 377.123 87.4119 379.958 87.4119C382.739 87.4119 386.961 85.814 386.961 79.715C386.961 77.1789 386.954 72.7118 386.954 72.7118ZM443.531 72.5962C443.531 72.5962 443.524 78.566 443.524 80.9594C443.524 87.2555 439.805 89.8528 436.229 89.8528C432.645 89.8528 428.912 87.2555 428.912 80.9594C428.912 78.566 428.919 72.4466 428.919 72.4466C428.919 72.4466 428.933 66.6061 428.933 64.2127C428.933 57.9438 432.673 55.3668 436.229 55.3668C439.792 55.3668 443.524 57.9438 443.524 64.2127C443.524 66.6061 443.517 71.0324 443.538 72.6166L443.531 72.5962ZM436.358 50.4713C421.943 50.4713 410.262 60.3983 410.262 72.6438C410.262 84.8893 421.95 94.8163 436.358 94.8163C450.772 94.8163 462.454 84.8893 462.454 72.6438C462.454 60.3983 450.772 50.4713 436.358 50.4713ZM123.407 45.3991V33.2623H141.303V45.3991H123.407ZM123.448 92.6541V53.1638L141.303 53.1709V92.6543L123.448 92.6541ZM213.029 92.6541L213.036 53.2454H203.326V47.3845L213.042 47.3775L213.029 39.3815H230.897V47.3707H240.566V53.2453H230.897L230.911 92.654L213.029 92.6541ZM50.7839 92.6541L50.7907 33.276H69.2915L94.8841 74.6836L94.8705 33.276H113.229V92.6541H94.8977L69.1692 51.2465V92.6541H50.7839Z" fill="#E60012"/>
</svg>
